M48
; DRILL file {KiCad (5.1.6)-1} date 09/18/20 13:43:45
; FORMAT={-:-/ absolute / inch / decimal}
; #@! TF.CreationDate,2020-09-18T13:43:45+05:30
; #@! TF.GenerationSoftware,Kicad,Pcbnew,(5.1.6)-1
FMAT,2
INCH
T1C0.0118
T2C0.0157
T3C0.0394
%
G90
G05
T1
X2.3504Y-3.6339
X2.3622Y-2.3622
X2.3622Y-3.9882
X2.374Y-3.6102
X3.1772Y-2.374
X3.189Y-2.7795
X3.189Y-4.063
X3.2008Y-2.3504
X4.0433Y-2.374
X4.0433Y-3.6339
X4.0551Y-2.8307
X4.0551Y-3.937
X4.0669Y-2.3504
X4.0669Y-3.6102
T2
X3.1575Y-3.7008
X3.2205Y-3.7008
T3
X3.1378Y-3.0669
X3.2378Y-3.0669
X2.311Y-4.2913
X2.411Y-4.2913
X4.0039Y-4.2953
X4.1039Y-4.2953
X2.3071Y-3.0669
X2.4071Y-3.0669
X4.0039Y-3.0669
X4.1039Y-3.0669
X3.1339Y-4.2953
X3.2339Y-4.2953
T0
M30
