%TF.GenerationSoftware,KiCad,Pcbnew,(5.1.6)-1*%
%TF.CreationDate,2020-09-18T13:43:39+05:30*%
%TF.ProjectId,PCB Electromagnet,50434220-456c-4656-9374-726f6d61676e,rev?*%
%TF.SameCoordinates,Original*%
%TF.FileFunction,Legend,Top*%
%TF.FilePolarity,Positive*%
%FSLAX46Y46*%
G04 Gerber Fmt 4.6, Leading zero omitted, Abs format (unit mm)*
G04 Created by KiCad (PCBNEW (5.1.6)-1) date 2020-09-18 13:43:39*
%MOMM*%
%LPD*%
G01*
G04 APERTURE LIST*
%ADD10C,0.160000*%
%ADD11C,0.120000*%
%ADD12C,0.150000*%
G04 APERTURE END LIST*
D10*
X99452380Y-104065714D02*
X99500000Y-104020000D01*
X99595238Y-103974285D01*
X99833333Y-103974285D01*
X99928571Y-104020000D01*
X99976190Y-104065714D01*
X100023809Y-104157142D01*
X100023809Y-104248571D01*
X99976190Y-104385714D01*
X99404761Y-104934285D01*
X100023809Y-104934285D01*
X100928571Y-103974285D02*
X100452380Y-103974285D01*
X100404761Y-104431428D01*
X100452380Y-104385714D01*
X100547619Y-104340000D01*
X100785714Y-104340000D01*
X100880952Y-104385714D01*
X100928571Y-104431428D01*
X100976190Y-104522857D01*
X100976190Y-104751428D01*
X100928571Y-104842857D01*
X100880952Y-104888571D01*
X100785714Y-104934285D01*
X100547619Y-104934285D01*
X100452380Y-104888571D01*
X100404761Y-104842857D01*
X102023809Y-103974285D02*
X102595238Y-103974285D01*
X102309523Y-104934285D02*
X102309523Y-103974285D01*
X102928571Y-103974285D02*
X102928571Y-104751428D01*
X102976190Y-104842857D01*
X103023809Y-104888571D01*
X103119047Y-104934285D01*
X103309523Y-104934285D01*
X103404761Y-104888571D01*
X103452380Y-104842857D01*
X103500000Y-104751428D01*
X103500000Y-103974285D01*
X104547619Y-104934285D02*
X104214285Y-104477142D01*
X103976190Y-104934285D02*
X103976190Y-103974285D01*
X104357142Y-103974285D01*
X104452380Y-104020000D01*
X104500000Y-104065714D01*
X104547619Y-104157142D01*
X104547619Y-104294285D01*
X104500000Y-104385714D01*
X104452380Y-104431428D01*
X104357142Y-104477142D01*
X103976190Y-104477142D01*
X104976190Y-104934285D02*
X104976190Y-103974285D01*
X105547619Y-104934285D01*
X105547619Y-103974285D01*
X105976190Y-104888571D02*
X106119047Y-104934285D01*
X106357142Y-104934285D01*
X106452380Y-104888571D01*
X106500000Y-104842857D01*
X106547619Y-104751428D01*
X106547619Y-104660000D01*
X106500000Y-104568571D01*
X106452380Y-104522857D01*
X106357142Y-104477142D01*
X106166666Y-104431428D01*
X106071428Y-104385714D01*
X106023809Y-104340000D01*
X105976190Y-104248571D01*
X105976190Y-104157142D01*
X106023809Y-104065714D01*
X106071428Y-104020000D01*
X106166666Y-103974285D01*
X106404761Y-103974285D01*
X106547619Y-104020000D01*
X100119047Y-105894285D02*
X100119047Y-106534285D01*
X99880952Y-105528571D02*
X99642857Y-106214285D01*
X100261904Y-106214285D01*
X101880952Y-106534285D02*
X101404761Y-106534285D01*
X101404761Y-105574285D01*
X102166666Y-106260000D02*
X102642857Y-106260000D01*
X102071428Y-106534285D02*
X102404761Y-105574285D01*
X102738095Y-106534285D01*
X103261904Y-106077142D02*
X103261904Y-106534285D01*
X102928571Y-105574285D02*
X103261904Y-106077142D01*
X103595238Y-105574285D01*
X103928571Y-106031428D02*
X104261904Y-106031428D01*
X104404761Y-106534285D02*
X103928571Y-106534285D01*
X103928571Y-105574285D01*
X104404761Y-105574285D01*
X105404761Y-106534285D02*
X105071428Y-106077142D01*
X104833333Y-106534285D02*
X104833333Y-105574285D01*
X105214285Y-105574285D01*
X105309523Y-105620000D01*
X105357142Y-105665714D01*
X105404761Y-105757142D01*
X105404761Y-105894285D01*
X105357142Y-105985714D01*
X105309523Y-106031428D01*
X105214285Y-106077142D01*
X104833333Y-106077142D01*
X105785714Y-106488571D02*
X105928571Y-106534285D01*
X106166666Y-106534285D01*
X106261904Y-106488571D01*
X106309523Y-106442857D01*
X106357142Y-106351428D01*
X106357142Y-106260000D01*
X106309523Y-106168571D01*
X106261904Y-106122857D01*
X106166666Y-106077142D01*
X105976190Y-106031428D01*
X105880952Y-105985714D01*
X105833333Y-105940000D01*
X105785714Y-105848571D01*
X105785714Y-105757142D01*
X105833333Y-105665714D01*
X105880952Y-105620000D01*
X105976190Y-105574285D01*
X106214285Y-105574285D01*
X106357142Y-105620000D01*
X77404761Y-103974285D02*
X78023809Y-103974285D01*
X77690476Y-104340000D01*
X77833333Y-104340000D01*
X77928571Y-104385714D01*
X77976190Y-104431428D01*
X78023809Y-104522857D01*
X78023809Y-104751428D01*
X77976190Y-104842857D01*
X77928571Y-104888571D01*
X77833333Y-104934285D01*
X77547619Y-104934285D01*
X77452380Y-104888571D01*
X77404761Y-104842857D01*
X78642857Y-103974285D02*
X78738095Y-103974285D01*
X78833333Y-104020000D01*
X78880952Y-104065714D01*
X78928571Y-104157142D01*
X78976190Y-104340000D01*
X78976190Y-104568571D01*
X78928571Y-104751428D01*
X78880952Y-104842857D01*
X78833333Y-104888571D01*
X78738095Y-104934285D01*
X78642857Y-104934285D01*
X78547619Y-104888571D01*
X78500000Y-104842857D01*
X78452380Y-104751428D01*
X78404761Y-104568571D01*
X78404761Y-104340000D01*
X78452380Y-104157142D01*
X78500000Y-104065714D01*
X78547619Y-104020000D01*
X78642857Y-103974285D01*
X80023809Y-103974285D02*
X80595238Y-103974285D01*
X80309523Y-104934285D02*
X80309523Y-103974285D01*
X80928571Y-103974285D02*
X80928571Y-104751428D01*
X80976190Y-104842857D01*
X81023809Y-104888571D01*
X81119047Y-104934285D01*
X81309523Y-104934285D01*
X81404761Y-104888571D01*
X81452380Y-104842857D01*
X81500000Y-104751428D01*
X81500000Y-103974285D01*
X82547619Y-104934285D02*
X82214285Y-104477142D01*
X81976190Y-104934285D02*
X81976190Y-103974285D01*
X82357142Y-103974285D01*
X82452380Y-104020000D01*
X82500000Y-104065714D01*
X82547619Y-104157142D01*
X82547619Y-104294285D01*
X82500000Y-104385714D01*
X82452380Y-104431428D01*
X82357142Y-104477142D01*
X81976190Y-104477142D01*
X82976190Y-104934285D02*
X82976190Y-103974285D01*
X83547619Y-104934285D01*
X83547619Y-103974285D01*
X83976190Y-104888571D02*
X84119047Y-104934285D01*
X84357142Y-104934285D01*
X84452380Y-104888571D01*
X84500000Y-104842857D01*
X84547619Y-104751428D01*
X84547619Y-104660000D01*
X84500000Y-104568571D01*
X84452380Y-104522857D01*
X84357142Y-104477142D01*
X84166666Y-104431428D01*
X84071428Y-104385714D01*
X84023809Y-104340000D01*
X83976190Y-104248571D01*
X83976190Y-104157142D01*
X84023809Y-104065714D01*
X84071428Y-104020000D01*
X84166666Y-103974285D01*
X84404761Y-103974285D01*
X84547619Y-104020000D01*
X78119047Y-105894285D02*
X78119047Y-106534285D01*
X77880952Y-105528571D02*
X77642857Y-106214285D01*
X78261904Y-106214285D01*
X79880952Y-106534285D02*
X79404761Y-106534285D01*
X79404761Y-105574285D01*
X80166666Y-106260000D02*
X80642857Y-106260000D01*
X80071428Y-106534285D02*
X80404761Y-105574285D01*
X80738095Y-106534285D01*
X81261904Y-106077142D02*
X81261904Y-106534285D01*
X80928571Y-105574285D02*
X81261904Y-106077142D01*
X81595238Y-105574285D01*
X81928571Y-106031428D02*
X82261904Y-106031428D01*
X82404761Y-106534285D02*
X81928571Y-106534285D01*
X81928571Y-105574285D01*
X82404761Y-105574285D01*
X83404761Y-106534285D02*
X83071428Y-106077142D01*
X82833333Y-106534285D02*
X82833333Y-105574285D01*
X83214285Y-105574285D01*
X83309523Y-105620000D01*
X83357142Y-105665714D01*
X83404761Y-105757142D01*
X83404761Y-105894285D01*
X83357142Y-105985714D01*
X83309523Y-106031428D01*
X83214285Y-106077142D01*
X82833333Y-106077142D01*
X83785714Y-106488571D02*
X83928571Y-106534285D01*
X84166666Y-106534285D01*
X84261904Y-106488571D01*
X84309523Y-106442857D01*
X84357142Y-106351428D01*
X84357142Y-106260000D01*
X84309523Y-106168571D01*
X84261904Y-106122857D01*
X84166666Y-106077142D01*
X83976190Y-106031428D01*
X83880952Y-105985714D01*
X83833333Y-105940000D01*
X83785714Y-105848571D01*
X83785714Y-105757142D01*
X83833333Y-105665714D01*
X83880952Y-105620000D01*
X83976190Y-105574285D01*
X84214285Y-105574285D01*
X84357142Y-105620000D01*
X56404761Y-103974285D02*
X57023809Y-103974285D01*
X56690476Y-104340000D01*
X56833333Y-104340000D01*
X56928571Y-104385714D01*
X56976190Y-104431428D01*
X57023809Y-104522857D01*
X57023809Y-104751428D01*
X56976190Y-104842857D01*
X56928571Y-104888571D01*
X56833333Y-104934285D01*
X56547619Y-104934285D01*
X56452380Y-104888571D01*
X56404761Y-104842857D01*
X57642857Y-103974285D02*
X57738095Y-103974285D01*
X57833333Y-104020000D01*
X57880952Y-104065714D01*
X57928571Y-104157142D01*
X57976190Y-104340000D01*
X57976190Y-104568571D01*
X57928571Y-104751428D01*
X57880952Y-104842857D01*
X57833333Y-104888571D01*
X57738095Y-104934285D01*
X57642857Y-104934285D01*
X57547619Y-104888571D01*
X57500000Y-104842857D01*
X57452380Y-104751428D01*
X57404761Y-104568571D01*
X57404761Y-104340000D01*
X57452380Y-104157142D01*
X57500000Y-104065714D01*
X57547619Y-104020000D01*
X57642857Y-103974285D01*
X59023809Y-103974285D02*
X59595238Y-103974285D01*
X59309523Y-104934285D02*
X59309523Y-103974285D01*
X59928571Y-103974285D02*
X59928571Y-104751428D01*
X59976190Y-104842857D01*
X60023809Y-104888571D01*
X60119047Y-104934285D01*
X60309523Y-104934285D01*
X60404761Y-104888571D01*
X60452380Y-104842857D01*
X60500000Y-104751428D01*
X60500000Y-103974285D01*
X61547619Y-104934285D02*
X61214285Y-104477142D01*
X60976190Y-104934285D02*
X60976190Y-103974285D01*
X61357142Y-103974285D01*
X61452380Y-104020000D01*
X61500000Y-104065714D01*
X61547619Y-104157142D01*
X61547619Y-104294285D01*
X61500000Y-104385714D01*
X61452380Y-104431428D01*
X61357142Y-104477142D01*
X60976190Y-104477142D01*
X61976190Y-104934285D02*
X61976190Y-103974285D01*
X62547619Y-104934285D01*
X62547619Y-103974285D01*
X62976190Y-104888571D02*
X63119047Y-104934285D01*
X63357142Y-104934285D01*
X63452380Y-104888571D01*
X63500000Y-104842857D01*
X63547619Y-104751428D01*
X63547619Y-104660000D01*
X63500000Y-104568571D01*
X63452380Y-104522857D01*
X63357142Y-104477142D01*
X63166666Y-104431428D01*
X63071428Y-104385714D01*
X63023809Y-104340000D01*
X62976190Y-104248571D01*
X62976190Y-104157142D01*
X63023809Y-104065714D01*
X63071428Y-104020000D01*
X63166666Y-103974285D01*
X63404761Y-103974285D01*
X63547619Y-104020000D01*
X57119047Y-105894285D02*
X57119047Y-106534285D01*
X56880952Y-105528571D02*
X56642857Y-106214285D01*
X57261904Y-106214285D01*
X58880952Y-106534285D02*
X58404761Y-106534285D01*
X58404761Y-105574285D01*
X59166666Y-106260000D02*
X59642857Y-106260000D01*
X59071428Y-106534285D02*
X59404761Y-105574285D01*
X59738095Y-106534285D01*
X60261904Y-106077142D02*
X60261904Y-106534285D01*
X59928571Y-105574285D02*
X60261904Y-106077142D01*
X60595238Y-105574285D01*
X60928571Y-106031428D02*
X61261904Y-106031428D01*
X61404761Y-106534285D02*
X60928571Y-106534285D01*
X60928571Y-105574285D01*
X61404761Y-105574285D01*
X62404761Y-106534285D02*
X62071428Y-106077142D01*
X61833333Y-106534285D02*
X61833333Y-105574285D01*
X62214285Y-105574285D01*
X62309523Y-105620000D01*
X62357142Y-105665714D01*
X62404761Y-105757142D01*
X62404761Y-105894285D01*
X62357142Y-105985714D01*
X62309523Y-106031428D01*
X62214285Y-106077142D01*
X61833333Y-106077142D01*
X62785714Y-106488571D02*
X62928571Y-106534285D01*
X63166666Y-106534285D01*
X63261904Y-106488571D01*
X63309523Y-106442857D01*
X63357142Y-106351428D01*
X63357142Y-106260000D01*
X63309523Y-106168571D01*
X63261904Y-106122857D01*
X63166666Y-106077142D01*
X62976190Y-106031428D01*
X62880952Y-105985714D01*
X62833333Y-105940000D01*
X62785714Y-105848571D01*
X62785714Y-105757142D01*
X62833333Y-105665714D01*
X62880952Y-105620000D01*
X62976190Y-105574285D01*
X63214285Y-105574285D01*
X63357142Y-105620000D01*
X99928571Y-73194285D02*
X99928571Y-73834285D01*
X99690476Y-72828571D02*
X99452380Y-73514285D01*
X100071428Y-73514285D01*
X100642857Y-72874285D02*
X100738095Y-72874285D01*
X100833333Y-72920000D01*
X100880952Y-72965714D01*
X100928571Y-73057142D01*
X100976190Y-73240000D01*
X100976190Y-73468571D01*
X100928571Y-73651428D01*
X100880952Y-73742857D01*
X100833333Y-73788571D01*
X100738095Y-73834285D01*
X100642857Y-73834285D01*
X100547619Y-73788571D01*
X100500000Y-73742857D01*
X100452380Y-73651428D01*
X100404761Y-73468571D01*
X100404761Y-73240000D01*
X100452380Y-73057142D01*
X100500000Y-72965714D01*
X100547619Y-72920000D01*
X100642857Y-72874285D01*
X102023809Y-72874285D02*
X102595238Y-72874285D01*
X102309523Y-73834285D02*
X102309523Y-72874285D01*
X102928571Y-72874285D02*
X102928571Y-73651428D01*
X102976190Y-73742857D01*
X103023809Y-73788571D01*
X103119047Y-73834285D01*
X103309523Y-73834285D01*
X103404761Y-73788571D01*
X103452380Y-73742857D01*
X103500000Y-73651428D01*
X103500000Y-72874285D01*
X104547619Y-73834285D02*
X104214285Y-73377142D01*
X103976190Y-73834285D02*
X103976190Y-72874285D01*
X104357142Y-72874285D01*
X104452380Y-72920000D01*
X104500000Y-72965714D01*
X104547619Y-73057142D01*
X104547619Y-73194285D01*
X104500000Y-73285714D01*
X104452380Y-73331428D01*
X104357142Y-73377142D01*
X103976190Y-73377142D01*
X104976190Y-73834285D02*
X104976190Y-72874285D01*
X105547619Y-73834285D01*
X105547619Y-72874285D01*
X105976190Y-73788571D02*
X106119047Y-73834285D01*
X106357142Y-73834285D01*
X106452380Y-73788571D01*
X106500000Y-73742857D01*
X106547619Y-73651428D01*
X106547619Y-73560000D01*
X106500000Y-73468571D01*
X106452380Y-73422857D01*
X106357142Y-73377142D01*
X106166666Y-73331428D01*
X106071428Y-73285714D01*
X106023809Y-73240000D01*
X105976190Y-73148571D01*
X105976190Y-73057142D01*
X106023809Y-72965714D01*
X106071428Y-72920000D01*
X106166666Y-72874285D01*
X106404761Y-72874285D01*
X106547619Y-72920000D01*
X100119047Y-74794285D02*
X100119047Y-75434285D01*
X99880952Y-74428571D02*
X99642857Y-75114285D01*
X100261904Y-75114285D01*
X101880952Y-75434285D02*
X101404761Y-75434285D01*
X101404761Y-74474285D01*
X102166666Y-75160000D02*
X102642857Y-75160000D01*
X102071428Y-75434285D02*
X102404761Y-74474285D01*
X102738095Y-75434285D01*
X103261904Y-74977142D02*
X103261904Y-75434285D01*
X102928571Y-74474285D02*
X103261904Y-74977142D01*
X103595238Y-74474285D01*
X103928571Y-74931428D02*
X104261904Y-74931428D01*
X104404761Y-75434285D02*
X103928571Y-75434285D01*
X103928571Y-74474285D01*
X104404761Y-74474285D01*
X105404761Y-75434285D02*
X105071428Y-74977142D01*
X104833333Y-75434285D02*
X104833333Y-74474285D01*
X105214285Y-74474285D01*
X105309523Y-74520000D01*
X105357142Y-74565714D01*
X105404761Y-74657142D01*
X105404761Y-74794285D01*
X105357142Y-74885714D01*
X105309523Y-74931428D01*
X105214285Y-74977142D01*
X104833333Y-74977142D01*
X105785714Y-75388571D02*
X105928571Y-75434285D01*
X106166666Y-75434285D01*
X106261904Y-75388571D01*
X106309523Y-75342857D01*
X106357142Y-75251428D01*
X106357142Y-75160000D01*
X106309523Y-75068571D01*
X106261904Y-75022857D01*
X106166666Y-74977142D01*
X105976190Y-74931428D01*
X105880952Y-74885714D01*
X105833333Y-74840000D01*
X105785714Y-74748571D01*
X105785714Y-74657142D01*
X105833333Y-74565714D01*
X105880952Y-74520000D01*
X105976190Y-74474285D01*
X106214285Y-74474285D01*
X106357142Y-74520000D01*
X77404761Y-72874285D02*
X78023809Y-72874285D01*
X77690476Y-73240000D01*
X77833333Y-73240000D01*
X77928571Y-73285714D01*
X77976190Y-73331428D01*
X78023809Y-73422857D01*
X78023809Y-73651428D01*
X77976190Y-73742857D01*
X77928571Y-73788571D01*
X77833333Y-73834285D01*
X77547619Y-73834285D01*
X77452380Y-73788571D01*
X77404761Y-73742857D01*
X78928571Y-72874285D02*
X78452380Y-72874285D01*
X78404761Y-73331428D01*
X78452380Y-73285714D01*
X78547619Y-73240000D01*
X78785714Y-73240000D01*
X78880952Y-73285714D01*
X78928571Y-73331428D01*
X78976190Y-73422857D01*
X78976190Y-73651428D01*
X78928571Y-73742857D01*
X78880952Y-73788571D01*
X78785714Y-73834285D01*
X78547619Y-73834285D01*
X78452380Y-73788571D01*
X78404761Y-73742857D01*
X80023809Y-72874285D02*
X80595238Y-72874285D01*
X80309523Y-73834285D02*
X80309523Y-72874285D01*
X80928571Y-72874285D02*
X80928571Y-73651428D01*
X80976190Y-73742857D01*
X81023809Y-73788571D01*
X81119047Y-73834285D01*
X81309523Y-73834285D01*
X81404761Y-73788571D01*
X81452380Y-73742857D01*
X81500000Y-73651428D01*
X81500000Y-72874285D01*
X82547619Y-73834285D02*
X82214285Y-73377142D01*
X81976190Y-73834285D02*
X81976190Y-72874285D01*
X82357142Y-72874285D01*
X82452380Y-72920000D01*
X82500000Y-72965714D01*
X82547619Y-73057142D01*
X82547619Y-73194285D01*
X82500000Y-73285714D01*
X82452380Y-73331428D01*
X82357142Y-73377142D01*
X81976190Y-73377142D01*
X82976190Y-73834285D02*
X82976190Y-72874285D01*
X83547619Y-73834285D01*
X83547619Y-72874285D01*
X83976190Y-73788571D02*
X84119047Y-73834285D01*
X84357142Y-73834285D01*
X84452380Y-73788571D01*
X84500000Y-73742857D01*
X84547619Y-73651428D01*
X84547619Y-73560000D01*
X84500000Y-73468571D01*
X84452380Y-73422857D01*
X84357142Y-73377142D01*
X84166666Y-73331428D01*
X84071428Y-73285714D01*
X84023809Y-73240000D01*
X83976190Y-73148571D01*
X83976190Y-73057142D01*
X84023809Y-72965714D01*
X84071428Y-72920000D01*
X84166666Y-72874285D01*
X84404761Y-72874285D01*
X84547619Y-72920000D01*
X78119047Y-74794285D02*
X78119047Y-75434285D01*
X77880952Y-74428571D02*
X77642857Y-75114285D01*
X78261904Y-75114285D01*
X79880952Y-75434285D02*
X79404761Y-75434285D01*
X79404761Y-74474285D01*
X80166666Y-75160000D02*
X80642857Y-75160000D01*
X80071428Y-75434285D02*
X80404761Y-74474285D01*
X80738095Y-75434285D01*
X81261904Y-74977142D02*
X81261904Y-75434285D01*
X80928571Y-74474285D02*
X81261904Y-74977142D01*
X81595238Y-74474285D01*
X81928571Y-74931428D02*
X82261904Y-74931428D01*
X82404761Y-75434285D02*
X81928571Y-75434285D01*
X81928571Y-74474285D01*
X82404761Y-74474285D01*
X83404761Y-75434285D02*
X83071428Y-74977142D01*
X82833333Y-75434285D02*
X82833333Y-74474285D01*
X83214285Y-74474285D01*
X83309523Y-74520000D01*
X83357142Y-74565714D01*
X83404761Y-74657142D01*
X83404761Y-74794285D01*
X83357142Y-74885714D01*
X83309523Y-74931428D01*
X83214285Y-74977142D01*
X82833333Y-74977142D01*
X83785714Y-75388571D02*
X83928571Y-75434285D01*
X84166666Y-75434285D01*
X84261904Y-75388571D01*
X84309523Y-75342857D01*
X84357142Y-75251428D01*
X84357142Y-75160000D01*
X84309523Y-75068571D01*
X84261904Y-75022857D01*
X84166666Y-74977142D01*
X83976190Y-74931428D01*
X83880952Y-74885714D01*
X83833333Y-74840000D01*
X83785714Y-74748571D01*
X83785714Y-74657142D01*
X83833333Y-74565714D01*
X83880952Y-74520000D01*
X83976190Y-74474285D01*
X84214285Y-74474285D01*
X84357142Y-74520000D01*
X56404761Y-72874285D02*
X57023809Y-72874285D01*
X56690476Y-73240000D01*
X56833333Y-73240000D01*
X56928571Y-73285714D01*
X56976190Y-73331428D01*
X57023809Y-73422857D01*
X57023809Y-73651428D01*
X56976190Y-73742857D01*
X56928571Y-73788571D01*
X56833333Y-73834285D01*
X56547619Y-73834285D01*
X56452380Y-73788571D01*
X56404761Y-73742857D01*
X57928571Y-72874285D02*
X57452380Y-72874285D01*
X57404761Y-73331428D01*
X57452380Y-73285714D01*
X57547619Y-73240000D01*
X57785714Y-73240000D01*
X57880952Y-73285714D01*
X57928571Y-73331428D01*
X57976190Y-73422857D01*
X57976190Y-73651428D01*
X57928571Y-73742857D01*
X57880952Y-73788571D01*
X57785714Y-73834285D01*
X57547619Y-73834285D01*
X57452380Y-73788571D01*
X57404761Y-73742857D01*
X59023809Y-72874285D02*
X59595238Y-72874285D01*
X59309523Y-73834285D02*
X59309523Y-72874285D01*
X59928571Y-72874285D02*
X59928571Y-73651428D01*
X59976190Y-73742857D01*
X60023809Y-73788571D01*
X60119047Y-73834285D01*
X60309523Y-73834285D01*
X60404761Y-73788571D01*
X60452380Y-73742857D01*
X60500000Y-73651428D01*
X60500000Y-72874285D01*
X61547619Y-73834285D02*
X61214285Y-73377142D01*
X60976190Y-73834285D02*
X60976190Y-72874285D01*
X61357142Y-72874285D01*
X61452380Y-72920000D01*
X61500000Y-72965714D01*
X61547619Y-73057142D01*
X61547619Y-73194285D01*
X61500000Y-73285714D01*
X61452380Y-73331428D01*
X61357142Y-73377142D01*
X60976190Y-73377142D01*
X61976190Y-73834285D02*
X61976190Y-72874285D01*
X62547619Y-73834285D01*
X62547619Y-72874285D01*
X62976190Y-73788571D02*
X63119047Y-73834285D01*
X63357142Y-73834285D01*
X63452380Y-73788571D01*
X63500000Y-73742857D01*
X63547619Y-73651428D01*
X63547619Y-73560000D01*
X63500000Y-73468571D01*
X63452380Y-73422857D01*
X63357142Y-73377142D01*
X63166666Y-73331428D01*
X63071428Y-73285714D01*
X63023809Y-73240000D01*
X62976190Y-73148571D01*
X62976190Y-73057142D01*
X63023809Y-72965714D01*
X63071428Y-72920000D01*
X63166666Y-72874285D01*
X63404761Y-72874285D01*
X63547619Y-72920000D01*
X56642857Y-74565714D02*
X56690476Y-74520000D01*
X56785714Y-74474285D01*
X57023809Y-74474285D01*
X57119047Y-74520000D01*
X57166666Y-74565714D01*
X57214285Y-74657142D01*
X57214285Y-74748571D01*
X57166666Y-74885714D01*
X56595238Y-75434285D01*
X57214285Y-75434285D01*
X58880952Y-75434285D02*
X58404761Y-75434285D01*
X58404761Y-74474285D01*
X59166666Y-75160000D02*
X59642857Y-75160000D01*
X59071428Y-75434285D02*
X59404761Y-74474285D01*
X59738095Y-75434285D01*
X60261904Y-74977142D02*
X60261904Y-75434285D01*
X59928571Y-74474285D02*
X60261904Y-74977142D01*
X60595238Y-74474285D01*
X60928571Y-74931428D02*
X61261904Y-74931428D01*
X61404761Y-75434285D02*
X60928571Y-75434285D01*
X60928571Y-74474285D01*
X61404761Y-74474285D01*
X62404761Y-75434285D02*
X62071428Y-74977142D01*
X61833333Y-75434285D02*
X61833333Y-74474285D01*
X62214285Y-74474285D01*
X62309523Y-74520000D01*
X62357142Y-74565714D01*
X62404761Y-74657142D01*
X62404761Y-74794285D01*
X62357142Y-74885714D01*
X62309523Y-74931428D01*
X62214285Y-74977142D01*
X61833333Y-74977142D01*
X62785714Y-75388571D02*
X62928571Y-75434285D01*
X63166666Y-75434285D01*
X63261904Y-75388571D01*
X63309523Y-75342857D01*
X63357142Y-75251428D01*
X63357142Y-75160000D01*
X63309523Y-75068571D01*
X63261904Y-75022857D01*
X63166666Y-74977142D01*
X62976190Y-74931428D01*
X62880952Y-74885714D01*
X62833333Y-74840000D01*
X62785714Y-74748571D01*
X62785714Y-74657142D01*
X62833333Y-74565714D01*
X62880952Y-74520000D01*
X62976190Y-74474285D01*
X63214285Y-74474285D01*
X63357142Y-74520000D01*
D11*
%TO.C,J1*%
X62470000Y-79230000D02*
X62470000Y-76570000D01*
X59870000Y-79230000D02*
X62470000Y-79230000D01*
X59870000Y-76570000D02*
X62470000Y-76570000D01*
X59870000Y-79230000D02*
X59870000Y-76570000D01*
X58600000Y-79230000D02*
X57270000Y-79230000D01*
X57270000Y-79230000D02*
X57270000Y-77900000D01*
%TO.C,J2*%
X83570000Y-79230000D02*
X83570000Y-76570000D01*
X80970000Y-79230000D02*
X83570000Y-79230000D01*
X80970000Y-76570000D02*
X83570000Y-76570000D01*
X80970000Y-79230000D02*
X80970000Y-76570000D01*
X79700000Y-79230000D02*
X78370000Y-79230000D01*
X78370000Y-79230000D02*
X78370000Y-77900000D01*
%TO.C,J3*%
X105570000Y-79230000D02*
X105570000Y-76570000D01*
X102970000Y-79230000D02*
X105570000Y-79230000D01*
X102970000Y-76570000D02*
X105570000Y-76570000D01*
X102970000Y-79230000D02*
X102970000Y-76570000D01*
X101700000Y-79230000D02*
X100370000Y-79230000D01*
X100370000Y-79230000D02*
X100370000Y-77900000D01*
%TO.C,J4*%
X62570000Y-110330000D02*
X62570000Y-107670000D01*
X59970000Y-110330000D02*
X62570000Y-110330000D01*
X59970000Y-107670000D02*
X62570000Y-107670000D01*
X59970000Y-110330000D02*
X59970000Y-107670000D01*
X58700000Y-110330000D02*
X57370000Y-110330000D01*
X57370000Y-110330000D02*
X57370000Y-109000000D01*
%TO.C,J5*%
X83470000Y-110430000D02*
X83470000Y-107770000D01*
X80870000Y-110430000D02*
X83470000Y-110430000D01*
X80870000Y-107770000D02*
X83470000Y-107770000D01*
X80870000Y-110430000D02*
X80870000Y-107770000D01*
X79600000Y-110430000D02*
X78270000Y-110430000D01*
X78270000Y-110430000D02*
X78270000Y-109100000D01*
%TO.C,J6*%
X100370000Y-110430000D02*
X100370000Y-109100000D01*
X101700000Y-110430000D02*
X100370000Y-110430000D01*
X102970000Y-110430000D02*
X102970000Y-107770000D01*
X102970000Y-107770000D02*
X105570000Y-107770000D01*
X102970000Y-110430000D02*
X105570000Y-110430000D01*
X105570000Y-110430000D02*
X105570000Y-107770000D01*
%TO.C,J1*%
D12*
X54666666Y-78352380D02*
X54666666Y-79066666D01*
X54619047Y-79209523D01*
X54523809Y-79304761D01*
X54380952Y-79352380D01*
X54285714Y-79352380D01*
X55666666Y-79352380D02*
X55095238Y-79352380D01*
X55380952Y-79352380D02*
X55380952Y-78352380D01*
X55285714Y-78495238D01*
X55190476Y-78590476D01*
X55095238Y-78638095D01*
%TO.C,J2*%
X75766666Y-78352380D02*
X75766666Y-79066666D01*
X75719047Y-79209523D01*
X75623809Y-79304761D01*
X75480952Y-79352380D01*
X75385714Y-79352380D01*
X76195238Y-78447619D02*
X76242857Y-78400000D01*
X76338095Y-78352380D01*
X76576190Y-78352380D01*
X76671428Y-78400000D01*
X76719047Y-78447619D01*
X76766666Y-78542857D01*
X76766666Y-78638095D01*
X76719047Y-78780952D01*
X76147619Y-79352380D01*
X76766666Y-79352380D01*
%TO.C,J3*%
X97766666Y-78352380D02*
X97766666Y-79066666D01*
X97719047Y-79209523D01*
X97623809Y-79304761D01*
X97480952Y-79352380D01*
X97385714Y-79352380D01*
X98147619Y-78352380D02*
X98766666Y-78352380D01*
X98433333Y-78733333D01*
X98576190Y-78733333D01*
X98671428Y-78780952D01*
X98719047Y-78828571D01*
X98766666Y-78923809D01*
X98766666Y-79161904D01*
X98719047Y-79257142D01*
X98671428Y-79304761D01*
X98576190Y-79352380D01*
X98290476Y-79352380D01*
X98195238Y-79304761D01*
X98147619Y-79257142D01*
%TO.C,J4*%
X54766666Y-109452380D02*
X54766666Y-110166666D01*
X54719047Y-110309523D01*
X54623809Y-110404761D01*
X54480952Y-110452380D01*
X54385714Y-110452380D01*
X55671428Y-109785714D02*
X55671428Y-110452380D01*
X55433333Y-109404761D02*
X55195238Y-110119047D01*
X55814285Y-110119047D01*
%TO.C,J5*%
X75666666Y-109452380D02*
X75666666Y-110166666D01*
X75619047Y-110309523D01*
X75523809Y-110404761D01*
X75380952Y-110452380D01*
X75285714Y-110452380D01*
X76619047Y-109452380D02*
X76142857Y-109452380D01*
X76095238Y-109928571D01*
X76142857Y-109880952D01*
X76238095Y-109833333D01*
X76476190Y-109833333D01*
X76571428Y-109880952D01*
X76619047Y-109928571D01*
X76666666Y-110023809D01*
X76666666Y-110261904D01*
X76619047Y-110357142D01*
X76571428Y-110404761D01*
X76476190Y-110452380D01*
X76238095Y-110452380D01*
X76142857Y-110404761D01*
X76095238Y-110357142D01*
%TO.C,J6*%
X97666666Y-109452380D02*
X97666666Y-110166666D01*
X97619047Y-110309523D01*
X97523809Y-110404761D01*
X97380952Y-110452380D01*
X97285714Y-110452380D01*
X98571428Y-109452380D02*
X98380952Y-109452380D01*
X98285714Y-109500000D01*
X98238095Y-109547619D01*
X98142857Y-109690476D01*
X98095238Y-109880952D01*
X98095238Y-110261904D01*
X98142857Y-110357142D01*
X98190476Y-110404761D01*
X98285714Y-110452380D01*
X98476190Y-110452380D01*
X98571428Y-110404761D01*
X98619047Y-110357142D01*
X98666666Y-110261904D01*
X98666666Y-110023809D01*
X98619047Y-109928571D01*
X98571428Y-109880952D01*
X98476190Y-109833333D01*
X98285714Y-109833333D01*
X98190476Y-109880952D01*
X98142857Y-109928571D01*
X98095238Y-110023809D01*
%TD*%
M02*
